<?xml version="1.0" encoding="utf-8"?>
<!-- Generator: Adobe Illustrator 20.0.0, SVG Export Plug-In . SVG Version: 6.00 Build 0)  -->
<svg version="1.1" id="Layer_1" xmlns="http://www.w3.org/2000/svg" xmlns:xlink="http://www.w3.org/1999/xlink" x="0px" y="0px"
	 viewBox="0 0 656.8 522.2" style="enable-background:new 0 0 656.8 522.2;" xml:space="preserve">
<style type="text/css">
	.st0{fill:#FFFFFF;}
</style>
<g>
	<path class="st0" d="M328.2,510c-33.6-0.6-67.2-0.9-100.7-1.9c-29-0.8-57.1-6.1-82.2-21.5c-33-20.2-53.1-50-59.5-87.8
		c-3.8-22.6-5.2-45.8-5.5-68.8c-0.7-49.2-0.5-98.4,0.1-147.6c0.3-26.1,1.1-52.3,9.8-77.4c16.7-48.1,50.5-77.3,100-86.8
		c22.5-4.3,45.8-5.3,68.7-5.6c49.4-0.8,98.8-0.5,148.2,0.1c25.9,0.3,51.9,1.2,76.9,9.8c48.3,16.7,77.7,50.6,87.1,100.4
		c4.3,22.5,5.2,45.8,5.6,68.7c0.7,49.2,0.5,98.4-0.1,147.6c-0.3,26.1-1.1,52.3-9.8,77.4c-16.7,48.1-50.5,77.3-100,86.8
		c-22.5,4.3-45.8,4.8-68.7,5.7c-23.2,0.9-46.5,0.2-69.7,0.2C328.2,509.6,328.2,509.8,328.2,510z M533.1,256.8c-0.3,0-0.7,0-1,0
		c0-19.6,0.4-39.2-0.1-58.8c-0.5-18.9-1.2-37.8-3.1-56.5c-4.3-42-29.3-71-70.7-78.9c-22.1-4.2-45.1-4.8-67.7-5.2
		c-41.4-0.8-82.8-0.7-124.2,0c-21.4,0.3-42.9,1.1-64,4.4c-36,5.6-60.5,26.2-70.4,61.9c-3.2,11.4-5,23.5-5.3,35.4
		c-1.1,45-1.7,90-1.6,135.1c0.1,28.6,0.8,57.4,3.2,85.9c3.7,42.2,28.9,71.1,70.3,79c22.3,4.3,45.4,4.8,68.2,5.3
		c41.2,0.8,82.5,0.5,123.7,0.1c19.2-0.2,38.5-1.3,57.6-3.1c17.7-1.7,34.3-7.5,48.5-18.9c23.1-18.4,32-43.7,33.4-71.7
		C531.7,332.7,532,294.8,533.1,256.8z"/>
	<path class="st0" d="M328,388.5c-70.9,0-127.3-57-127.3-128.6c0-70.5,57.4-126.8,129.2-126.7c70.1,0.1,126.3,57.6,126.2,129.2
		C456,332,398.6,388.6,328,388.5z M328.5,343.7c45.5-0.1,82.8-37.5,82.7-83c-0.1-45.5-37.6-82.9-82.9-82.7
		c-45.5,0.1-82.8,37.5-82.7,82.9C245.6,306.4,283.1,343.8,328.5,343.7z"/>
	<path class="st0" d="M461.7,98.3c16.8,0.1,29.5,13.4,29.3,30.5c-0.2,16.3-13.9,29.7-30.1,29.4c-16.6-0.3-30.1-14.1-29.8-30.4
		C431.4,111.1,444.8,98.2,461.7,98.3z"/>
</g>
</svg>
